REM DIRINDEX 1\2,1\4,1\3\5,1\3\6,1\3\7
REM DIRNAME cjc082,folder01,folder02,folder03,folder04,folder05,folder06
TITLE ""
FILE "CD2Track26.mp3" MP3
  TRACK 01 AUDIO
    TITLE "0:"
    INDEX 01 00:00:00
  TRACK 02 AUDIO
    TITLE "5:cjc082_1787"
    INDEX 01 00:00:31
  TRACK 03 AUDIO
    TITLE "0:"
    INDEX 01 00:01:44
  TRACK 04 AUDIO
    TITLE "6:cjc082_1788"
    INDEX 01 00:02:20
  TRACK 05 AUDIO
    TITLE "0:"
    INDEX 01 00:04:05
  TRACK 06 AUDIO
    TITLE "5:cjc082_1789"
    INDEX 01 00:04:50
  TRACK 07 AUDIO
    TITLE "0:"
    INDEX 01 00:05:65
  TRACK 08 AUDIO
    TITLE "6:cjc082_1790"
    INDEX 01 00:06:39
  TRACK 09 AUDIO
    TITLE "0:"
    INDEX 01 00:07:68
  TRACK 10 AUDIO
    TITLE "5:cjc082_1791"
    INDEX 01 00:08:42
  TRACK 11 AUDIO
    TITLE "0:"
    INDEX 01 00:09:53
  TRACK 12 AUDIO
    TITLE "6:cjc082_1792"
    INDEX 01 00:10:37
  TRACK 13 AUDIO
    TITLE "0:"
    INDEX 01 00:11:74
  TRACK 14 AUDIO
    TITLE "5:cjc082_1793"
    INDEX 01 00:12:42
  TRACK 15 AUDIO
    TITLE "0:"
    INDEX 01 00:13:53
  TRACK 16 AUDIO
    TITLE "6:cjc082_1794"
    INDEX 01 00:14:29
  TRACK 17 AUDIO
    TITLE "0:"
    INDEX 01 00:15:32
  TRACK 18 AUDIO
    TITLE "5:cjc082_1795"
    INDEX 01 00:16:06
  TRACK 19 AUDIO
    TITLE "0:"
    INDEX 01 00:17:20
  TRACK 20 AUDIO
    TITLE "6:cjc082_1796"
    INDEX 01 00:17:67
  TRACK 21 AUDIO
    TITLE "0:"
    INDEX 01 00:19:38
  TRACK 22 AUDIO
    TITLE "5:cjc082_1797"
    INDEX 01 00:20:14
  TRACK 23 AUDIO
    TITLE "0:"
    INDEX 01 00:21:21
  TRACK 24 AUDIO
    TITLE "6:cjc082_1798"
    INDEX 01 00:21:68
  TRACK 25 AUDIO
    TITLE "0:"
    INDEX 01 00:25:17
  TRACK 26 AUDIO
    TITLE "5:cjc082_1799"
    INDEX 01 00:25:64
  TRACK 27 AUDIO
    TITLE "0:"
    INDEX 01 00:27:26
  TRACK 28 AUDIO
    TITLE "6:cjc082_1800"
    INDEX 01 00:28:02
  TRACK 29 AUDIO
    TITLE "0:"
    INDEX 01 00:30:03
  TRACK 30 AUDIO
    TITLE "5:cjc082_1801"
    INDEX 01 00:30:52
  TRACK 31 AUDIO
    TITLE "0:"
    INDEX 01 00:31:71
  TRACK 32 AUDIO
    TITLE "6:cjc082_1802"
    INDEX 01 00:32:41
  TRACK 33 AUDIO
    TITLE "0:"
    INDEX 01 00:33:69
  TRACK 34 AUDIO
    TITLE "5:cjc082_1803"
    INDEX 01 00:34:40
  TRACK 35 AUDIO
    TITLE "0:"
    INDEX 01 00:35:64
  TRACK 36 AUDIO
    TITLE "6:cjc082_1804"
    INDEX 01 00:36:36
  TRACK 37 AUDIO
    TITLE "0:"
    INDEX 01 00:37:54
  TRACK 38 AUDIO
    TITLE "5:cjc082_1805"
    INDEX 01 00:38:20
  TRACK 39 AUDIO
    TITLE "0:"
    INDEX 01 00:39:29
  TRACK 40 AUDIO
    TITLE "6:cjc082_1806"
    INDEX 01 00:40:05
  TRACK 41 AUDIO
    TITLE "0:"
    INDEX 01 00:41:14
  TRACK 42 AUDIO
    TITLE "5:cjc082_1807"
    INDEX 01 00:41:59
  TRACK 43 AUDIO
    TITLE "0:"
    INDEX 01 00:43:03
  TRACK 44 AUDIO
    TITLE "6:cjc082_1808"
    INDEX 01 00:43:58
  TRACK 45 AUDIO
    TITLE "0:"
    INDEX 01 00:45:12
  TRACK 46 AUDIO
    TITLE "5:cjc082_1809"
    INDEX 01 00:45:53
  TRACK 47 AUDIO
    TITLE "0:"
    INDEX 01 00:46:74
  TRACK 48 AUDIO
    TITLE "6:cjc082_1810"
    INDEX 01 00:47:54
  TRACK 49 AUDIO
    TITLE "0:"
    INDEX 01 00:51:36
  TRACK 50 AUDIO
    TITLE "5:cjc082_1811"
    INDEX 01 00:52:10
  TRACK 51 AUDIO
    TITLE "0:"
    INDEX 01 00:53:17
  TRACK 52 AUDIO
    TITLE "6:cjc082_1812"
    INDEX 01 00:54:07
  TRACK 53 AUDIO
    TITLE "0:"
    INDEX 01 00:56:10
  TRACK 54 AUDIO
    TITLE "5:cjc082_1813"
    INDEX 01 00:56:57
  TRACK 55 AUDIO
    TITLE "0:"
    INDEX 01 00:58:20
  TRACK 56 AUDIO
    TITLE "6:cjc082_1814"
    INDEX 01 00:58:66
  TRACK 57 AUDIO
    TITLE "0:"
    INDEX 01 01:00:15
  TRACK 58 AUDIO
    TITLE "7:cjc082_1815"
    INDEX 01 01:01:54
  TRACK 59 AUDIO
    TITLE "0:"
    INDEX 01 01:11:62
